# xmcd
#
# Track frame offsets: 
#        150
#        17828
#        32891
#        59765
#
# Disc length: 1364 seconds
#
# Revision: 0
# Processed by: cddbd v1.5.2PL0 Copyright (c) Steve Scherf et al.
# Submitted via: ExactAudioCopy v0.95b4
#
DISCID=33055204
DTITLE=Ricochet - The Live Album disc 2
DYEAR=2004
DGENRE=Country
TTITLE0=Feel Like Fallin'
TTITLE1=That's Love
TTITLE2=I Knew
TTITLE3=data
EXTD=
EXTT0=
EXTT1=
EXTT2=
EXTT3=
PLAYORDER=
